<svg viewBox="0 0 64 64" xmlns="http://www.w3.org/2000/svg" xml:space="preserve" style="fill-rule:evenodd;clip-rule:evenodd;stroke-linecap:round;stroke-linejoin:round;stroke-miterlimit:2"><path style="fill:none" d="M0 0h64v64H0z"/><path d="M40.772 58.038a24.106 24.106 0 0 0 0-34.091l-.719-.719a24.103 24.103 0 0 0-34.091 0l-.001.001a1.933 1.933 0 0 0 0 2.732l32.078 32.078a1.933 1.933 0 0 0 2.732 0l.001-.001z" style="fill:none;stroke:#444f58;stroke-width:2px"/><path d="M7.169 22.15a5.596 5.596 0 0 1 2.124-8.074 5.589 5.589 0 0 1 4.801-.131 5.583 5.583 0 0 1 3.938-2.748 5.585 5.585 0 0 1 4.857 1.543 5.588 5.588 0 0 1 4.844-1.584 5.582 5.582 0 0 1 3.961 2.715 5.588 5.588 0 0 1 7.824 4.195 5.586 5.586 0 0 1 4.85 1.566 5.58 5.58 0 0 1 1.609 4.524 5.59 5.59 0 0 1 3.864 7.993 5.588 5.588 0 0 1 3.003 4.118 5.583 5.583 0 0 1-1.358 4.606 5.589 5.589 0 0 1-1.572 8.737 5.589 5.589 0 0 1 .01 5.097 5.596 5.596 0 0 1-8.074 2.124" style="fill:none;stroke:#444f58;stroke-width:2px"/><path d="M54.027 30.542a4.478 4.478 0 0 1-1.288 5.213M21.111 11.553a3.918 3.918 0 0 1 6.644-2.206 3.897 3.897 0 0 1 1.089 2.103" style="fill:none;stroke:#444f58;stroke-width:2px"/></svg>